<?xml version="1.0" standalone="no"?>
<!DOCTYPE svg PUBLIC "-//W3C//DTD SVG 20010904//EN"
 "http://www.w3.org/TR/2001/REC-SVG-20010904/DTD/svg10.dtd">
<svg version="1.0" xmlns="http://www.w3.org/2000/svg"
 width="500.000000pt" height="424.000000pt" viewBox="0 0 500.000000 424.000000"
 preserveAspectRatio="xMidYMid meet">

<g transform="translate(0.000000,424.000000) scale(0.100000,-0.100000)"
fill="#000000" stroke="none">
<path d="M2256 4100 c-761 -95 -1415 -632 -1651 -1354 -163 -498 -126 -1035
104 -1501 162 -328 379 -577 679 -779 216 -145 457 -245 730 -303 120 -26 142
-27 382 -27 239 0 263 2 382 27 627 133 1124 511 1403 1067 141 280 208 565
208 885 0 186 -13 302 -55 475 -182 755 -773 1321 -1551 1486 -105 22 -152 26
-342 29 -121 2 -251 0 -289 -5z m224 -69 l0 -28 -97 -7 c-54 -4 -138 -14 -188
-23 -164 -28 -152 -28 -157 1 -3 15 -2 28 1 30 29 18 266 53 374 55 l67 1 0
-29z m161 9 c-2 -8 -4 -20 -4 -26 0 -6 -20 -11 -49 -10 -46 1 -48 2 -48 29 0
28 1 28 53 25 40 -2 51 -6 48 -18z m132 -23 c-1 -15 2 -25 7 -22 6 4 10 1 10
-5 0 -7 -7 -9 -16 -6 -9 3 -40 6 -70 6 -57 0 -66 10 -45 49 8 14 19 16 63 11
51 -5 53 -6 51 -33z m140 1 c26 -5 45 -14 41 -19 -3 -5 0 -9 5 -9 6 0 11 -9
11 -21 0 -13 -4 -18 -12 -13 -6 4 -26 7 -44 6 -18 -1 -36 3 -39 8 -3 5 -12 7
-20 3 -23 -8 -64 23 -62 48 1 22 3 22 120 -3z m-931 -66 c3 -21 -6 -26 -93
-56 -53 -19 -140 -54 -194 -80 -54 -25 -101 -46 -105 -46 -4 0 -12 12 -18 26
-12 25 -11 26 85 71 116 55 305 124 315 115 3 -4 8 -17 10 -30z m1166 2 c83
-28 302 -129 302 -139 0 -4 -5 -16 -11 -28 l-12 -21 -10 24 c-8 21 -11 22 -14
8 -5 -22 -17 -23 -33 -3 -7 8 -19 15 -26 15 -7 0 -45 15 -83 34 -38 18 -81 36
-95 40 -16 4 -24 11 -20 18 4 7 3 8 -5 4 -19 -12 -71 3 -64 20 3 8 1 14 -5 14
-6 0 -12 -6 -15 -12 -3 -10 -7 -10 -17 -1 -18 17 -4 67 16 59 9 -3 50 -18 92
-32z m-428 -114 c106 -13 125 -19 112 -32 -7 -7 -37 -7 -94 1 -254 33 -533 9
-749 -64 -40 -14 -76 -22 -81 -19 -6 4 -13 2 -17 -3 -3 -5 -67 -39 -141 -76
-74 -37 -178 -98 -230 -134 -122 -87 -327 -291 -412 -413 -141 -199 -246 -457
-288 -705 -18 -108 -21 -159 -18 -315 1 -102 7 -191 11 -198 7 -10 69 -12 277
-12 147 1 270 3 273 6 2 3 0 26 -6 52 -14 67 -13 305 2 382 32 167 95 322 190
465 56 85 193 225 282 288 130 92 305 166 469 198 94 18 348 16 438 -5 225
-50 407 -145 566 -296 196 -186 321 -431 357 -697 11 -85 8 -271 -7 -355 l-7
-38 275 0 276 0 6 31 c3 18 9 82 12 143 13 225 -39 521 -125 719 -11 26 -17
47 -13 47 4 0 2 4 -3 8 -6 4 -18 25 -28 47 -10 22 -40 76 -67 120 -29 49 -45
84 -39 89 12 13 25 -6 90 -122 94 -169 172 -404 200 -602 13 -95 14 -378 2
-455 l-8 -50 -308 -3 c-169 -1 -307 -1 -307 0 0 2 7 38 15 81 19 101 19 278 0
390 -17 94 -62 231 -103 312 -82 162 -242 340 -396 440 -448 292 -1036 232
-1416 -145 -191 -189 -303 -424 -332 -695 -11 -108 -5 -216 19 -352 l5 -32
-305 -1 -305 0 -6 23 c-4 12 -10 94 -13 182 -12 317 43 573 182 850 203 405
552 710 985 863 97 34 244 69 340 81 96 12 343 13 440 1z m243 -46 c27 -6 35
-18 19 -28 -4 -3 -38 3 -74 12 -47 12 -62 20 -54 28 7 7 23 8 46 2 19 -4 47
-11 63 -14z m-1443 -33 c5 -11 10 -22 10 -25 0 -3 -34 -29 -76 -57 -43 -28
-119 -87 -170 -129 l-92 -78 -21 22 -21 22 58 50 c111 97 272 214 294 214 4 0
12 -9 18 -19z m2075 -31 c85 -57 172 -126 227 -178 l38 -36 -21 -23 -22 -22
-64 59 c-35 32 -105 87 -154 122 -50 35 -98 68 -106 74 -13 9 -13 14 -2 32 8
12 17 22 22 22 4 0 41 -23 82 -50z m-568 34 c-3 -3 -12 -4 -19 -1 -8 3 -5 6 6
6 11 1 17 -2 13 -5z m216 -77 c65 -29 74 -37 61 -50 -8 -8 -76 27 -93 47 -7 9
-17 13 -22 10 -11 -7 -79 17 -79 28 0 13 62 -3 133 -35z m-709 -11 c6 -1 9
-27 7 -58 -2 -55 -2 -55 30 -62 17 -3 47 -6 65 -6 l34 0 0 54 c0 30 4 57 8 60
5 3 34 2 66 -1 l57 -6 -5 -51 c-3 -28 -8 -91 -12 -139 l-6 -88 -60 3 -61 3 -1
60 -1 60 -62 3 -63 3 0 -56 0 -55 -65 0 -65 0 4 38 c3 20 8 82 11 136 3 54 8
102 10 106 4 6 79 4 109 -4z m844 -60 c12 -4 22 -11 22 -16 0 -4 11 -11 24
-14 13 -3 48 -24 77 -46 29 -22 57 -40 61 -40 5 0 8 -6 8 -14 0 -8 6 -17 13
-19 8 -4 8 -6 0 -6 -9 -1 -188 113 -203 130 -3 3 -19 11 -37 18 -21 9 -30 18
-26 27 5 13 8 13 22 1 9 -8 26 -18 39 -21z m-303 -41 c133 -60 183 -86 200
-105 18 -20 18 -22 -27 -123 l-45 -102 -44 1 c-30 0 -77 15 -148 47 -104 47
-151 79 -151 103 0 7 20 56 45 110 l45 97 43 -5 c24 -3 61 -13 82 -23z m-1010
-25 c18 -40 18 -40 -6 -67 -23 -25 -23 -26 -3 -21 32 8 53 -9 75 -59 11 -25
18 -47 17 -48 -7 -6 -101 -45 -108 -45 -4 0 -15 20 -24 45 -10 25 -22 47 -27
51 -5 3 -34 -6 -64 -20 l-56 -25 27 -52 c21 -41 23 -53 12 -60 -23 -15 -98
-42 -103 -37 -15 15 -112 244 -106 251 19 21 280 127 312 127 32 0 38 -4 54
-40z m-985 -202 c-38 -44 -97 -120 -130 -169 -34 -49 -64 -89 -69 -89 -4 0
-16 6 -26 14 -18 13 -18 15 5 52 37 60 121 172 185 246 l59 68 22 -21 23 -21
-69 -80z m2925 12 c63 -76 179 -240 173 -245 -6 -5 -47 -25 -51 -25 -2 0 -26
33 -52 73 -51 77 -149 200 -184 231 -25 23 -26 34 -4 58 15 17 17 17 36 1 11
-10 47 -52 82 -93z m-347 56 c23 -24 42 -49 42 -55 0 -6 6 -8 13 -5 13 5 94
-81 179 -190 42 -54 51 -76 30 -76 -15 0 -113 140 -106 151 4 7 3 9 -4 5 -11
-7 -212 185 -212 203 0 20 16 11 58 -33z m-201 -204 c-42 -42 -77 -82 -77 -87
0 -13 72 -85 85 -85 5 0 43 36 83 80 40 44 76 80 80 80 4 -1 27 -18 51 -40
l45 -39 -89 -90 c-49 -50 -96 -91 -105 -91 -9 0 -35 13 -56 29 -61 45 -191
176 -199 200 -5 18 9 39 81 117 l87 95 46 -45 46 -46 -78 -78z m-1955 40 l-93
-87 23 -28 24 -29 70 66 c67 61 72 64 87 48 15 -16 11 -22 -54 -81 l-71 -64
26 -25 26 -26 32 29 c18 16 59 54 90 84 55 53 59 54 75 38 17 -16 16 -19 -24
-55 -22 -20 -84 -76 -136 -124 -52 -49 -97 -88 -100 -88 -2 0 -47 45 -98 101
l-93 101 50 46 c27 26 89 85 138 131 82 78 89 82 104 67 16 -16 11 -23 -76
-104z m1335 -343 c181 -139 334 -257 341 -264 11 -10 11 -17 3 -34 -8 -14 -8
-21 -1 -21 5 0 10 7 10 15 0 8 5 15 10 15 15 0 120 -80 120 -91 0 -5 5 -9 11
-9 5 0 53 -33 105 -72 l94 -73 -175 -3 -175 -2 0 -250 c0 -211 -2 -250 -14
-250 -20 0 -27 -13 -15 -30 8 -13 10 -13 19 0 8 12 10 12 8 -5 0 -11 0 -62 0
-112 l2 -93 175 0 175 0 17 35 17 35 313 0 c252 0 313 -3 313 -13 0 -52 -95
-292 -165 -417 -384 -684 -1184 -1028 -1942 -836 -508 128 -936 481 -1154 953
-36 76 -109 281 -109 303 0 6 55 10 141 10 125 0 140 -2 129 -15 -10 -12 -37
-15 -121 -15 -88 0 -109 -3 -109 -14 0 -27 62 -191 108 -285 236 -485 701
-838 1237 -937 139 -26 480 -26 609 0 349 70 638 220 885 460 196 191 337 410
425 665 20 57 36 105 36 107 0 2 -130 4 -288 4 l-289 0 -24 -52 c-37 -81 -131
-216 -204 -296 -116 -125 -279 -233 -449 -297 -236 -89 -536 -92 -776 -7 -102
36 -110 41 -104 56 5 12 12 11 47 -4 80 -35 217 -69 324 -80 324 -33 640 74
885 299 64 59 188 212 188 232 0 5 -108 9 -267 9 l-268 0 -12 25 c-6 15 -7 25
-1 25 5 0 8 10 6 23 -2 18 2 23 30 25 l32 3 -2 167 -3 167 -102 3 -103 3 0
-170 0 -171 24 0 c43 0 56 -10 56 -44 0 -18 -5 -37 -12 -44 -13 -13 -291 -18
-322 -6 -11 4 -16 19 -16 44 0 40 11 50 56 50 l24 0 0 370 0 370 -24 0 c-45 0
-56 10 -56 50 0 26 5 40 16 44 28 11 308 5 321 -6 7 -6 13 -25 13 -43 0 -35
-13 -45 -56 -45 l-24 0 0 -150 0 -150 105 0 105 0 0 150 0 150 -28 0 c-15 0
-33 5 -40 12 -16 16 -15 63 1 76 8 7 73 13 160 14 l147 3 -115 88 c-68 52
-113 93 -109 99 4 7 2 8 -5 4 -7 -4 -106 65 -246 173 -129 100 -238 182 -243
183 -4 2 -169 -121 -366 -272 l-357 -275 278 -6 c153 -3 279 -6 280 -7 1 -1
18 -16 38 -33 l35 -31 0 -167 c0 -91 -4 -171 -8 -177 -4 -6 -18 -17 -31 -23
l-23 -13 31 -19 31 -19 0 -188 0 -189 -26 -27 c-15 -14 -43 -30 -63 -36 -21
-6 -191 -10 -413 -10 -208 0 -378 -3 -378 -6 0 -10 39 -64 104 -142 58 -71
175 -174 243 -215 18 -10 30 -23 27 -28 -3 -5 4 -9 15 -9 29 0 94 -41 83 -52
-11 -11 -50 7 -137 65 -182 120 -316 269 -409 455 l-36 72 -168 1 c-92 1 -159
3 -149 6 9 2 15 9 12 14 -4 5 61 9 160 9 l166 0 15 -35 14 -35 180 0 180 0 0
370 0 370 -176 2 -177 3 509 392 c280 216 510 392 511 393 2 0 150 -113 330
-251z m-2003 136 c19 -14 18 -18 -31 -122 -28 -60 -63 -143 -78 -185 -27 -78
-40 -90 -73 -70 -10 7 -6 28 19 98 37 106 124 294 136 294 4 0 17 -7 27 -15z
m3428 -85 c26 -55 62 -141 79 -191 27 -76 30 -92 18 -100 -32 -20 -44 -9 -72
73 -16 46 -51 130 -78 187 -27 57 -48 105 -47 106 9 6 44 24 48 25 3 0 27 -45
52 -100z m-3037 0 c3 -5 -20 -57 -51 -116 l-57 -107 24 -18 c13 -10 27 -19 31
-19 4 0 26 36 50 80 43 79 51 87 76 72 9 -6 1 -29 -33 -92 -25 -46 -44 -84
-42 -85 1 -2 16 -9 32 -18 l30 -15 58 109 c32 60 61 109 65 109 4 0 13 -4 21
-9 11 -7 -4 -43 -74 -175 l-89 -166 -115 61 c-64 34 -120 65 -125 69 -7 7 86
197 146 298 19 32 41 41 53 22z m2614 -30 c36 -50 116 -205 125 -242 7 -29
-20 -68 -46 -68 -15 0 -73 103 -61 108 33 11 35 20 15 58 -36 68 -45 77 -66
61 -17 -13 -17 -17 13 -112 42 -134 41 -149 -10 -175 -37 -20 -43 -20 -64 -6
-25 16 -88 117 -130 209 -32 68 -32 102 0 123 30 19 25 22 60 -40 l27 -49 -20
-16 -21 -16 30 -52 c32 -56 35 -58 58 -44 12 8 10 27 -18 126 -18 64 -31 122
-28 129 6 15 65 45 89 46 10 0 31 -18 47 -40z m-3161 -335 c2 -2 -4 -34 -13
-71 -19 -84 -45 -272 -45 -331 0 -41 -1 -43 -30 -43 -29 0 -30 1 -30 48 0 91
23 257 52 369 10 39 13 42 37 36 14 -3 27 -7 29 -8z m3728 -40 c15 -59 42
-256 47 -342 l3 -63 -31 0 -32 0 -7 110 c-6 97 -39 300 -52 322 -6 9 35 28 51
24 5 -1 15 -24 21 -51z m-357 -147 c6 -46 17 -128 25 -183 8 -55 14 -100 13
-101 -1 -1 -11 -4 -22 -6 -17 -3 -20 5 -27 52 -4 30 -13 85 -19 123 l-11 67
-35 0 -36 0 6 -52 c3 -29 9 -74 13 -100 6 -44 5 -48 -14 -48 -23 0 -28 12 -37
85 -11 94 -12 95 -50 95 -41 0 -41 2 -20 -125 20 -121 19 -135 -4 -135 -11 0
-21 9 -24 23 -13 51 -48 340 -42 346 6 6 199 38 246 40 26 1 27 -2 38 -81z
m-2967 45 c10 -9 18 -26 19 -37 0 -21 1 -21 11 1 13 28 40 37 83 29 29 -6 35
-12 41 -40 3 -19 0 -76 -6 -127 -7 -52 -16 -117 -19 -146 -4 -29 -10 -55 -14
-59 -4 -4 -68 1 -142 11 l-136 18 5 26 c3 14 10 67 16 116 15 124 30 187 48
208 19 22 70 22 94 0z m-465 -398 c10 -117 28 -253 43 -325 11 -47 16 -88 12
-91 -4 -4 -17 -10 -29 -13 -19 -6 -23 -1 -38 66 -22 97 -45 269 -45 341 0 58
0 58 28 55 22 -2 27 -8 29 -33z m3836 28 c13 -24 -39 -422 -59 -454 -2 -5 -18
-3 -34 3 -17 5 -28 13 -26 17 13 20 46 221 51 312 4 57 8 110 10 117 5 13 51
17 58 5z m-3733 -570 c12 -38 45 -117 72 -178 65 -144 64 -139 34 -153 -24
-11 -26 -9 -71 85 -39 80 -115 271 -115 289 0 4 38 22 51 23 4 1 16 -29 29
-66z m598 51 c30 -6 28 -15 -13 -41 -39 -26 -67 -28 -114 -12 -36 13 -38 20
-13 42 26 23 66 26 140 11z m2499 1 c22 -6 37 -30 28 -45 -3 -5 -25 -12 -49
-15 -45 -7 -89 8 -115 39 -11 13 -7 16 26 21 21 4 43 8 48 10 10 3 24 1 62
-10z m549 -10 c7 -17 -59 -191 -112 -298 -40 -78 -46 -86 -64 -77 -31 17 -33
29 -10 67 23 39 110 238 110 252 0 5 7 24 15 44 12 28 19 34 36 30 11 -3 23
-11 25 -18z m-3202 -67 c14 -52 6 -87 -26 -124 l-33 -37 -7 39 c-12 65 13 144
46 144 8 0 16 -10 20 -22z m2735 -4 c21 -27 27 -84 15 -132 -6 -22 -7 -22 -26
-5 -35 31 -50 72 -43 112 11 61 22 66 54 25z m-2545 -5 c37 -29 34 -49 -8 -49
-25 0 -40 7 -55 26 -11 15 -18 30 -15 35 9 16 51 10 78 -12z m2381 11 c4 -6
-1 -22 -9 -35 -13 -20 -25 -25 -56 -25 -22 0 -40 3 -40 7 0 4 12 20 27 35 27
28 66 37 78 18z m-2470 -24 c13 -13 28 -41 34 -62 20 -72 15 -77 -50 -44 -42
22 -59 51 -59 101 0 24 4 29 25 29 14 0 37 -11 50 -24z m2555 -15 c0 -22 -8
-48 -19 -62 -18 -23 -87 -56 -97 -46 -3 3 0 24 6 48 13 48 59 99 89 99 18 0
21 -6 21 -39z m-990 21 c0 -24 -31 -32 -120 -34 -87 -1 -82 -2 55 -9 83 -5
210 -8 283 -8 74 0 170 -3 215 -8 l82 -8 -115 -6 c-63 -4 -198 -7 -300 -8
-102 -2 -205 -6 -230 -10 -55 -10 -75 -9 305 -17 154 -3 282 -8 284 -10 11
-11 -24 -13 -289 -19 -316 -8 -446 -22 -214 -24 214 -2 446 -13 437 -22 -4 -4
-114 -10 -243 -14 -129 -3 -255 -6 -280 -7 -25 0 -35 -3 -22 -5 13 -3 20 -9
16 -16 -5 -8 -2 -8 7 1 20 18 32 15 26 -9 -5 -19 -4 -20 12 -5 15 13 45 16
182 15 166 0 259 -9 228 -21 -9 -4 -124 -10 -255 -15 -215 -7 -229 -8 -139
-14 55 -4 152 -7 215 -8 103 -1 113 -3 96 -16 -14 -11 -50 -15 -125 -16 -58
-1 -153 -5 -211 -9 l-105 -7 135 -2 c74 -1 153 -5 175 -9 l40 -8 -34 -12 c-19
-7 -75 -13 -125 -13 -123 -2 -180 -16 -71 -18 100 -2 84 -14 -46 -37 -117 -20
-301 -15 -409 12 l-75 19 85 5 c117 7 76 20 -63 20 -73 1 -120 5 -136 14 -23
13 -23 13 15 19 22 4 91 7 155 7 88 0 116 -3 115 -12 0 -7 3 -14 9 -16 5 -1
11 12 12 30 2 21 0 28 -6 20 -11 -17 -384 -5 -378 12 5 14 187 25 205 13 7 -6
12 -5 12 1 0 7 29 13 73 15 56 2 48 3 -38 5 -66 1 -116 7 -122 13 -6 6 -17 8
-23 4 -15 -9 -250 -6 -264 3 -20 12 76 20 254 22 96 1 193 5 215 9 l40 9 -49
1 c-27 0 -158 4 -290 7 -135 3 -245 10 -251 15 -6 6 22 10 80 9 50 0 143 3
209 6 94 5 120 3 128 -7 7 -11 11 -11 15 -1 3 8 30 12 81 13 115 2 43 16 -88
18 -224 2 -480 15 -480 23 0 4 44 8 98 8 53 0 196 3 317 7 249 9 217 19 -70
23 -93 2 -224 6 -290 9 l-120 6 110 7 c61 4 227 11 370 15 l260 7 -170 7 c-93
4 -264 9 -380 13 -262 7 -271 9 -110 16 204 9 1085 11 1085 2z m130 -7 c11
-13 7 -15 -24 -15 -22 0 -36 5 -36 13 0 8 -2 9 -8 1 -8 -13 -52 -28 -52 -18 0
30 98 46 120 19z m359 3 l76 -1 -85 -8 c-47 -4 -137 -7 -201 -8 -97 -1 -119 2
-130 16 -13 15 -4 16 125 10 77 -4 173 -8 215 -9z m-1949 -61 c20 -15 50 -58
50 -70 0 -14 -61 1 -82 20 -40 36 -10 84 32 50z m2313 7 c23 -8 1 -63 -30 -75
-59 -22 -72 4 -24 52 32 32 32 32 54 23z m-2476 -46 c16 -15 23 -33 23 -60 0
-46 -10 -48 -44 -7 -27 31 -31 46 -20 73 8 21 13 20 41 -6z m2643 -17 c0 -17
-11 -38 -29 -55 l-30 -28 -7 38 c-6 33 -4 40 20 61 32 27 46 23 46 -16z
m-2549 -38 c14 -12 17 -12 22 2 9 22 34 18 62 -10 22 -21 35 -75 20 -75 -14 0
-65 32 -65 40 0 6 -5 10 -11 10 -6 0 -8 -9 -4 -20 9 -29 -17 -26 -54 6 -29 24
-39 52 -25 67 8 7 34 -2 55 -20z m2463 -19 c-5 -14 -24 -34 -41 -46 l-33 -20
0 27 0 27 -31 -26 c-36 -30 -63 -34 -55 -8 2 9 7 26 10 38 6 19 43 44 66 44 6
0 10 -7 10 -17 0 -14 2 -15 18 -1 41 36 73 26 56 -18z m-2080 -219 c13 -27 26
-66 30 -85 l6 -34 -35 34 c-40 39 -75 104 -75 141 0 13 -7 36 -17 49 -10 15 0
10 26 -15 23 -22 52 -62 65 -90z m1728 78 c-8 -27 -21 -63 -29 -81 -15 -38
-64 -102 -77 -102 -12 0 3 68 25 112 16 32 85 118 94 118 1 0 -4 -21 -13 -47z
m-1905 -17 c37 -12 126 -117 111 -132 -2 -2 -22 6 -44 17 -46 24 -98 79 -126
134 l-20 40 28 -26 c16 -15 39 -30 51 -33z m503 39 c0 -19 -21 -19 -46 0 -18
14 -17 14 14 15 22 0 32 -5 32 -15z m1555 -26 c-25 -47 -84 -108 -126 -130
-50 -25 -52 -24 -35 10 26 50 64 88 110 110 25 11 47 25 51 31 14 23 14 8 0
-21z m-2627 -77 c29 -43 87 -121 131 -173 73 -87 78 -95 63 -111 -8 -10 -20
-18 -26 -18 -16 1 -146 159 -214 258 l-57 83 25 20 c14 10 25 19 26 19 0 0 24
-35 52 -78z m3226 55 c15 -11 11 -21 -52 -112 -84 -121 -188 -240 -209 -240
-9 0 -20 7 -26 16 -8 12 7 36 69 110 44 52 101 127 127 167 50 74 61 81 91 59z
m-869 -27 c-8 -16 -15 -40 -15 -53 0 -32 -44 -118 -76 -148 l-26 -24 7 45 c9
56 37 111 83 167 20 24 38 43 39 43 2 0 -3 -13 -12 -30z m-1494 -92 c11 -21
22 -59 25 -85 l5 -48 -30 34 c-38 43 -59 88 -66 137 -2 20 -9 42 -15 48 -5 5
-10 15 -10 21 1 15 69 -65 91 -107z m1370 1 c-12 -19 -21 -44 -21 -55 0 -26
-57 -111 -88 -132 -23 -15 -23 -15 -16 14 15 60 43 111 89 162 52 58 67 63 36
11z m-1231 -97 c12 -24 23 -58 26 -75 5 -32 5 -32 -45 21 -35 36 -52 64 -57
90 -3 20 -12 47 -20 59 -25 40 -15 38 31 -7 24 -24 54 -63 65 -88z m-373 62
c28 11 110 -24 155 -65 l43 -39 -50 6 c-86 10 -121 23 -183 68 -76 57 -85 70
-27 45 26 -11 54 -18 62 -15z m1938 -11 c-53 -47 -127 -80 -199 -86 l-58 -6
21 23 c39 41 118 77 175 81 29 1 62 7 72 13 33 20 30 12 -11 -25z m-1452 -73
c31 -28 60 -67 78 -104 16 -33 27 -62 25 -64 -8 -7 -83 47 -114 82 -17 20 -35
49 -38 64 -4 15 -20 45 -37 66 l-31 39 34 -19 c18 -10 55 -39 83 -64z m987 40
c-12 -17 -26 -46 -31 -64 -15 -54 -149 -175 -149 -134 1 23 36 92 65 126 23
27 120 102 133 102 2 0 -6 -14 -18 -30z m-818 -99 c43 -39 98 -122 98 -151 0
-17 -98 49 -130 88 -16 20 -30 45 -30 54 0 10 -17 37 -37 60 l-38 41 43 -24
c24 -13 66 -44 94 -68z m670 57 c-11 -13 -29 -43 -40 -68 -20 -47 -79 -108
-131 -135 -17 -8 -31 -14 -31 -12 0 16 45 102 68 128 23 28 135 109 150 109 3
0 -4 -10 -16 -22z m-569 -44 c23 -15 59 -43 80 -63 38 -36 91 -124 85 -142 -5
-14 -103 56 -131 93 -14 18 -28 44 -32 58 -4 14 -19 37 -33 53 -32 34 -23 34
31 1z m397 -1 c-11 -14 -29 -45 -39 -68 -10 -23 -29 -52 -42 -65 -29 -28 -111
-81 -116 -76 -6 6 35 86 64 125 21 27 134 111 150 111 3 0 -5 -12 -17 -27z
m-840 -24 c62 -30 64 -32 40 -41 -58 -23 -175 0 -261 52 -25 15 -23 15 65 17
84 2 97 0 156 -28z m1462 3 c-74 -45 -182 -63 -252 -43 -24 7 -23 8 20 31 66
34 86 38 182 36 l87 -1 -37 -23z m-2007 -180 c39 -31 98 -75 133 -97 65 -42
70 -50 49 -80 -13 -17 -18 -15 -93 35 -87 57 -142 101 -220 171 l-52 47 21 20
21 21 35 -30 c20 -16 68 -56 106 -87z m2511 97 c19 -21 19 -21 -12 -48 -17
-14 -55 -47 -85 -73 -54 -46 -227 -168 -239 -168 -7 0 -33 51 -28 54 32 15
193 133 253 185 44 38 83 70 86 70 3 1 14 -8 25 -20z m-1796 -11 l35 -15 -39
-17 c-50 -21 -146 -20 -218 2 -68 21 -79 29 -35 24 18 -2 48 4 67 13 42 18
137 15 190 -7z m1102 6 c20 -10 44 -14 66 -10 19 3 31 2 26 -3 -20 -19 -111
-41 -167 -41 -62 0 -137 17 -137 32 0 4 1 8 3 8 1 0 20 7 42 15 54 19 129 19
167 -1z m-894 -83 c14 -8 9 -13 -33 -32 -54 -23 -150 -30 -218 -16 -42 9 -41
27 1 27 15 0 36 6 47 14 11 7 29 16 40 19 28 8 142 0 163 -12z m687 -1 c22
-11 48 -20 60 -20 11 0 26 -4 34 -9 20 -13 -120 -34 -171 -26 -50 9 -133 43
-125 51 10 10 70 22 117 23 28 1 61 -7 85 -19z m-470 -29 l29 -6 -24 -16 c-54
-34 -111 -49 -183 -48 -39 1 -83 5 -97 9 l-25 8 25 1 c14 1 44 10 65 22 68 36
137 46 210 30z m259 -25 c25 -14 60 -26 78 -27 67 -2 -13 -17 -96 -18 -65 -1
-89 4 -137 25 -33 15 -59 30 -59 35 0 12 47 18 113 14 39 -2 71 -11 101 -29z
m-844 -260 c87 -31 95 -36 92 -58 -5 -32 -6 -32 -59 -17 -81 22 -335 131 -361
154 -2 2 4 15 13 28 l16 26 102 -50 c56 -27 145 -64 197 -83z m1549 108 c10
-22 9 -28 -6 -40 -27 -19 -214 -101 -305 -132 -68 -23 -80 -25 -88 -12 -22 35
-10 45 98 83 59 20 145 57 192 80 47 24 88 44 91 45 3 1 11 -10 18 -24z
m-1279 -179 c65 -12 267 -35 307 -35 8 0 13 -12 13 -31 l0 -32 -92 7 c-100 7
-260 31 -320 47 -26 6 -36 14 -33 24 3 8 7 22 10 31 3 11 11 14 23 9 9 -3 51
-13 92 -20z m814 -2 c5 -16 3 -29 -5 -34 -27 -16 -311 -59 -396 -59 -30 0 -33
3 -33 30 0 22 5 30 18 30 42 0 283 32 337 44 33 7 63 14 66 15 4 0 10 -11 13
-26z"/>
<path d="M2230 4019 c0 -5 5 -7 10 -4 6 3 10 8 10 11 0 2 -4 4 -10 4 -5 0 -10
-5 -10 -11z"/>
<path d="M3015 3445 c-21 -47 -36 -86 -34 -88 15 -9 101 -47 108 -47 5 0 17
21 29 48 11 26 27 64 36 84 l16 38 -37 18 c-79 40 -76 41 -118 -53z"/>
<path d="M1878 3497 c-50 -22 -58 -39 -34 -72 14 -19 15 -19 67 5 30 13 55 25
57 26 6 4 -28 64 -36 63 -4 -1 -28 -10 -54 -22z"/>
<path d="M3295 2480 c3 -5 8 -10 11 -10 2 0 4 5 4 10 0 6 -5 10 -11 10 -5 0
-7 -4 -4 -10z"/>
<path d="M2020 2233 c0 -76 3 -148 6 -160 7 -24 24 -32 24 -10 0 9 22 11 83 9
99 -4 110 4 109 75 -1 26 4 53 10 60 7 8 7 13 0 13 -5 0 -10 16 -9 35 1 19 5
35 9 35 4 0 8 -4 8 -10 0 -5 5 -10 11 -10 6 0 2 12 -9 28 -11 15 -23 37 -26
50 -7 21 -12 22 -112 22 l-104 0 0 -137z"/>
<path d="M2356 2325 c-10 -7 -16 -18 -13 -22 3 -5 -3 -22 -14 -39 -15 -21 -19
-23 -15 -8 4 14 2 21 -8 21 -18 0 -39 -44 -26 -52 15 -9 12 -23 -5 -27 -9 -2
-12 -8 -6 -16 6 -11 14 -8 35 11 14 13 26 30 26 37 0 6 8 24 19 38 17 25 37
72 29 72 -2 0 -11 -7 -22 -15z"/>
<path d="M1943 2133 c9 -9 20 -13 24 -9 4 4 1 11 -7 16 -25 16 -35 11 -17 -7z"/>
<path d="M1870 2060 c0 -5 5 -10 11 -10 5 0 7 5 4 10 -3 6 -8 10 -11 10 -2 0
-4 -4 -4 -10z"/>
<path d="M1984 2055 c3 -9 -1 -18 -9 -21 -8 -4 -15 -10 -15 -15 0 -5 14 -2 31
6 25 13 28 19 18 31 -15 19 -33 18 -25 -1z"/>
<path d="M1870 2006 c0 -13 -6 -27 -12 -29 -7 -3 -3 -6 10 -6 12 -1 25 -8 28
-16 11 -27 22 -16 20 19 -4 40 -12 56 -32 56 -8 0 -14 -10 -14 -24z"/>
<path d="M2016 1976 c4 -19 2 -31 -7 -38 -11 -7 -11 -11 -1 -15 9 -3 12 -43
12 -149 l0 -144 104 0 c85 0 105 3 110 16 3 9 6 80 6 159 0 171 3 167 -122
164 -70 -2 -83 1 -95 17 -13 18 -14 17 -7 -10z"/>
<path d="M1955 1910 c-3 -5 -1 -10 4 -10 6 0 11 5 11 10 0 6 -2 10 -4 10 -3 0
-8 -4 -11 -10z"/>
<path d="M1908 1898 c9 -9 15 -9 24 0 9 9 7 12 -12 12 -19 0 -21 -3 -12 -12z"/>
<path d="M1878 1713 c7 -3 16 -2 19 1 4 3 -2 6 -13 5 -11 0 -14 -3 -6 -6z"/>
<path d="M1900 1669 c0 -5 5 -7 10 -4 6 3 10 8 10 11 0 2 -4 4 -10 4 -5 0 -10
-5 -10 -11z"/>
<path d="M3040 1630 c0 -5 5 -10 10 -10 6 0 10 5 10 10 0 6 -4 10 -10 10 -5 0
-10 -4 -10 -10z"/>
<path d="M2972 1595 c-20 -19 -32 -35 -26 -35 5 0 25 16 44 35 44 45 31 45
-18 0z"/>
<path d="M996 2328 c-3 -12 -7 -42 -10 -64 -6 -40 -5 -42 26 -48 17 -3 35 -3
39 1 4 5 10 34 14 66 6 53 5 57 -13 57 -11 0 -27 3 -36 6 -10 4 -17 -2 -20
-18z"/>
<path d="M1115 2308 c-2 -13 -6 -41 -7 -62 -3 -37 -1 -40 29 -47 36 -7 37 -6
48 70 8 47 -1 61 -42 61 -15 0 -24 -7 -28 -22z"/>
<path d="M2610 1311 c0 -19 20 -61 29 -61 5 0 8 11 7 24 0 13 -4 22 -8 19 -5
-2 -8 3 -8 11 0 9 -4 16 -10 16 -5 0 -10 -4 -10 -9z"/>
<path d="M2430 1261 c0 -6 5 -13 10 -16 6 -3 10 1 10 9 0 9 -4 16 -10 16 -5 0
-10 -4 -10 -9z"/>
<path d="M2585 1240 c-3 -5 -1 -10 4 -10 6 0 11 5 11 10 0 6 -2 10 -4 10 -3 0
-8 -4 -11 -10z"/>
<path d="M2600 1210 c0 -5 5 -12 10 -15 6 -4 8 -11 5 -16 -4 -5 -2 -9 4 -9 14
0 9 39 -6 44 -7 3 -13 1 -13 -4z"/>
</g>
</svg>
